<?xml version="1.0" encoding="UTF-8"?>
<svg width="400" height="400" enable-background="new 0 0 4000 4000" version="1.1" viewBox="0 0 4e3 4e3" xml:space="preserve" xmlns="http://www.w3.org/2000/svg">  <path d="m1425.7 3916.7c-53.431-1.9269-99.367-6.5461-130.92-13.164-7.8033-1.637-24.926-4.9075-38.049-7.2679-25.598-4.6037-74.877-16.379-109.25-26.104-11.644-3.295-26.218-7.1624-32.384-8.5943-6.167-1.4317-14.405-3.9217-18.307-5.5332-3.9017-1.6115-11.347-3.7037-16.546-4.6495-5.1984-0.9458-13.324-3.2961-18.057-5.2229-4.733-1.927-11.764-4.123-15.625-4.8803-3.8605-0.7572-11.406-3.2345-16.768-5.5049-5.3618-2.2705-16.133-6.2886-23.936-8.9292-19.487-6.5943-29.767-10.794-56.752-23.183-24.998-11.478-30.431-15.006-36.629-23.786-7.0732-10.02-4.3258-20.033 7.8424-28.583 11.405-8.0138 19.732-9.3342 64.256-10.189 49.11-0.9429 87.498 2.0286 112.21 8.6865 6.0298 1.6243 14.736 3.3116 19.347 3.7496s14.478 2.6029 21.927 4.8108c7.4487 2.2081 17.026 4.5981 21.282 5.3115 4.2564 0.7133 12.963 2.8941 19.347 4.846 6.3846 1.952 15.671 4.1116 20.637 4.7993 4.9657 0.6875 13.382 2.6503 18.702 4.3615s15.768 3.922 23.217 4.913c7.4486 0.9908 20.798 3.3869 29.666 5.3245 8.8674 1.9377 21.637 4.0863 28.376 4.7748 6.7393 0.6884 20.089 2.6443 29.666 4.3463 22.75 4.0428 50.415 5.3788 110.92 5.3564 59.014-0.022 91.171-1.3606 111.57-4.645 8.5128-1.3707 23.604-3.3399 33.535-4.3763 9.9316-1.0363 25.149-3.4836 33.817-5.4385s21.437-4.3573 28.376-5.3387c6.9388-0.9815 18.13-3.3706 24.869-5.3093 6.7393-1.9385 15.446-3.9096 19.347-4.3797 3.9018-0.4703 11.266-2.422 16.364-4.3373 5.0986-1.9154 12.934-4.1034 17.412-4.8625 4.4783-0.759 12.786-3.1751 18.461-5.3689 5.6751-2.1939 13.506-4.3954 17.402-4.8919 3.8958-0.4966 11.151-2.4276 16.123-4.2912 4.9715-1.8635 14.263-4.289 20.647-5.39s19.428-3.6193 28.984-5.5964c9.5571-1.9768 29.291-5.5702 43.854-7.985l26.477-4.3906 52.99-0.4908c67.714-0.6273 110.96 1.0126 133.2 5.0511 8.9713 1.6289 22.445 3.8269 29.941 4.8845 7.4964 1.0574 18.005 3.2255 23.353 4.8181 5.3475 1.5923 13.144 3.2777 17.326 3.7451 4.1816 0.4674 13.697 2.6588 21.146 4.8699 7.4486 2.2111 16.445 4.3997 19.992 4.8639 3.547 0.464 11.092 2.6243 16.768 4.8008 5.6751 2.1764 14.386 4.5402 19.356 5.2528 4.9709 0.7125 12.806 2.7365 17.412 4.4979 4.6059 1.7616 12.96 3.9575 18.564 4.8802 5.604 0.9227 14.812 3.0479 20.462 4.7225 5.6499 1.6747 15.575 3.8921 22.056 4.9273 6.4808 1.0354 18.168 3.4506 25.971 5.3671 7.8033 1.9167 20.143 4.082 27.421 4.8118 7.2783 0.7301 21.789 2.6879 32.245 4.351 22.383 3.5597 60.473 5.242 118.33 5.2263 59.206-0.015 98.408-1.6328 112.57-4.6425 6.5827-1.3987 18.481-3.3858 26.441-4.416 7.96-1.0302 22.308-3.4658 31.885-5.4124 9.577-1.9465 23.507-4.353 30.956-5.3478 7.4488-0.9948 19.347-3.3868 26.441-5.3155s16.961-3.8883 21.927-4.3547 15.704-2.4486 23.862-4.405c8.1581-1.9563 20.347-4.1262 27.086-4.8221 6.7393-0.6957 18.498-2.6193 26.131-4.2747 11.356-2.4627 19.443-3.2135 44.499-4.1313 38.03-1.3929 126.69-1.4381 134.25-0.069 9.8016 1.7771 23.427 16.859 21.555 23.859-2.0643 7.7175-20.362 20.657-33.847 23.936-4.1981 1.0207-14.277 4.7902-22.398 8.3767-30.923 13.657-65.392 27.402-73.452 29.291-4.611 1.0804-11.866 3.5318-16.123 5.4475-4.2563 1.9156-11.939 4.312-17.073 5.3251-5.1337 1.0132-12.099 3.1947-15.478 4.8478-3.3791 1.6531-10.209 3.8049-15.178 4.7817-4.9688 0.9768-13.675 3.372-19.347 5.3225-5.672 1.9504-13.188 3.9422-16.703 4.4261-3.5146 0.484-11.64 2.655-18.058 4.8246-6.4169 2.1697-14.632 4.3065-18.257 4.7486-3.6242 0.4422-11.734 2.4355-18.021 4.4298-6.2873 1.9941-16.962 4.4125-23.721 5.3742-6.7591 0.9617-17.223 3.1564-23.253 4.8773-6.0298 1.7208-17.508 3.9441-25.506 4.9405-7.9983 0.9964-22.509 3.3868-32.245 5.3119-45.691 9.0339-74.143 11.49-133.14 11.496-45.871 0-76.806-1.3473-109.63-4.789-8.8675-0.9296-22.217-2.0231-29.666-2.4299-7.8026-0.4259-20.104-2.2156-29.021-4.222-8.5127-1.9153-18.67-3.8142-22.572-4.2197-3.9016-0.4056-11.157-1.2978-16.123-1.9831-11.393-1.5718-105.62-23.606-132.12-30.897-10.951-3.0121-24.881-6.2805-30.956-7.2629-6.0748-0.9825-15.688-3.1191-21.363-4.7477-5.6752-1.6289-15.542-3.5567-21.927-4.2843s-18.573-2.4064-27.086-3.7309c-29.604-4.6056-41.482-5.5829-76.744-6.3153-42.973-0.8925-91.386 0.8091-114.31 4.0176-9.3126 1.3033-26.145 4.299-37.405 6.6573-11.26 2.3582-27.728 5.6705-36.595 7.3606-8.8674 1.69-22.217 4.6575-29.666 6.5943-7.4487 1.9367-16.735 3.8968-20.637 4.3556-3.9017 0.4587-10.576 2.122-14.833 3.6959-4.2564 1.574-15.375 4.4652-24.708 6.425-9.3331 1.9598-18.709 4.4073-20.836 5.4392-2.1264 1.0316-8.13 2.4771-13.341 3.2118-5.2112 0.7349-14.989 2.6606-21.728 4.2796s-17.477 3.776-23.862 4.7937c-6.3846 1.0177-18.573 3.4387-27.086 5.3802-9.8065 2.2365-25.403 4.4554-42.564 6.0558-14.897 1.3891-34.631 3.3643-43.854 4.3891-16.076 1.7867-79.214 3.0685-105.12 2.1343zm1023.5-268.01c-15.607-0.4935-32.439-1.2623-37.404-1.7081-16.423-1.4747-71.976-10.323-87.062-13.867-8.1579-1.9167-18.896-4.1128-23.861-4.8802-4.9658-0.7676-13.962-2.9683-19.992-4.8903-6.0299-1.9222-14.156-3.8591-18.057-4.304-3.9018-0.4452-11.447-2.605-16.768-4.7999-5.3205-2.1949-13.788-4.5749-18.816-5.2889-5.0285-0.7141-13.154-2.7181-18.057-4.4533-4.9031-1.7353-13.247-3.9354-18.542-4.8895-5.2951-0.9538-14.292-3.1171-19.992-4.8072-5.7007-1.6899-16.169-3.8859-23.263-4.8796s-19.283-3.3774-27.086-5.2968c-7.8033-1.9195-18.251-3.8481-23.216-4.2858-4.9658-0.438-14.252-1.8273-20.637-3.0877-17.772-3.5084-32.784-4.6266-73.519-5.4765-47.198-0.9847-93.955 0.929-120.24 4.9214-10.482 1.5919-23.121 3.2668-28.087 3.7219-4.9659 0.4552-13.672 2.1429-19.347 3.7507-5.6752 1.6079-16.123 3.9458-23.217 5.1955-7.0939 1.2496-16.757 3.6434-21.474 5.3198-4.7164 1.6761-13.152 3.8576-18.747 4.8476-5.5944 0.99-13.92 3.2291-18.502 4.9759-4.5816 1.7467-12.397 3.7643-17.368 4.4835-4.971 0.7193-13.681 2.896-19.356 4.8375-5.6751 1.9413-14.381 4.1197-19.347 4.841-4.9658 0.721-13.645 2.8877-19.287 4.8148-5.6905 1.9436-15.454 4.0638-21.927 4.7615-6.418 0.6919-15.442 2.2941-20.053 3.5602-11.294 3.1011-30.236 6.4383-61.563 10.846-36.615 5.1522-71.337 6.577-139 5.7042-75.564-0.9747-89.44-2.1972-146.39-12.896-17.38-3.2649-35.671-6.4941-40.646-7.176-4.9748-0.6817-12.52-2.3681-16.768-3.7474-4.2472-1.3794-14.479-3.8527-22.736-5.4965-8.2579-1.6436-24.51-5.7414-36.115-9.1062-20.683-5.9969-72.341-18.469-101.71-24.558-8.158-1.6912-33.986-5.3879-57.397-8.2151l-42.564-5.1404-43.854-0.055c-42.791-0.053-44.572 0.043-73.519 3.9063-48.285 6.4464-55.936 7.6142-65.851 10.051-5.1928 1.2762-15.789 3.1029-23.547 4.0594-7.7581 0.9564-19.658 3.1583-26.445 4.8929-6.7865 1.7348-17.743 3.9184-24.347 4.8528-6.6044 0.9341-15.951 3.0946-20.77 4.8011-4.8192 1.7065-14.821 3.9007-22.227 4.8761-7.4056 0.9754-19.134 3.1683-26.063 4.8732-17.354 4.2697-36.361 5.3617-93.856 5.3925-51.96 0.027-59.938-0.564-72.575-5.3821-4.3707-1.6664-13.894-3.8679-21.163-4.8924-8.5004-1.1979-15.17-2.8871-18.691-4.7336-3.011-1.5789-8.5472-3.811-12.303-4.9598-17.665-5.404-48.12-20.596-64.87-32.358-19.146-13.445-34.839-30.192-37.455-39.968-1.2494-4.6708 3.3799-11.033 9.7745-13.434 6.586-2.4726 25.203-2.5047 39.288-0.068 35.022 6.0594 65.491 8.1443 119.31 8.1638 43.479 0.015 64.02-1.2602 84.483-5.2479 6.3846-1.2443 19.569-3.3976 29.298-4.7853 9.7293-1.3878 22.789-4.0575 29.021-5.9326 6.2321-1.8752 14.814-3.8117 19.07-4.3035 4.2564-0.4917 11.102-2.2192 15.213-3.8388 4.1108-1.6196 13.589-4.3006 21.063-5.9575 7.4738-1.657 20.362-4.9442 28.641-7.3048 8.2785-2.3608 28.982-7.2849 46.007-10.942 17.026-3.6576 37.05-7.9779 44.499-9.6005 41.448-9.0293 64.603-10.766 130.27-9.774 53.518 0.8089 70.899 1.8609 84.173 5.0947 4.4267 1.0783 14.835 2.7061 23.13 3.6172 8.2949 0.9112 19.903 2.8126 25.796 4.2252 5.8929 1.4127 17.796 3.8456 26.451 5.4064s18.522 3.9962 21.927 5.412 11.514 3.3261 18.021 4.2449c6.5074 0.9189 16.084 3.3092 21.282 5.3116 5.1978 2.0026 13.105 4.2427 17.571 4.9782 4.4663 0.7354 14.671 3.2002 22.677 5.4776 22.781 6.4799 79.981 19.585 100.35 22.992 10.158 1.6989 25.888 4.4208 34.954 6.0488 24.093 4.3263 61.438 5.8926 118.3 4.9618 64.675-1.0587 97.544-3.2211 121.24-7.9765 6.0298-1.21 16.169-2.5684 22.532-3.0189 6.9078-0.4889 15.222-2.0196 20.637-3.7993 4.9878-1.6392 14.583-3.7985 21.322-4.7983 6.7392-0.9997 17.852-3.4309 24.696-5.4029 6.8436-1.9718 16.766-4.3613 22.05-5.3098 5.2836-0.9486 13.231-3.156 17.661-4.9055 4.4299-1.7496 11.34-3.748 15.355-4.441 4.015-0.6927 12.229-2.8591 18.254-4.8141 6.0245-1.9549 15.021-4.136 19.992-4.8471 4.9711-0.7112 13.207-2.9091 18.301-4.8847 5.0945-1.9755 14.091-4.3305 19.992-5.2336 5.9012-0.9029 15.677-2.9928 21.723-4.6439 6.0465-1.651 17.365-3.8846 25.151-4.9635 7.7867-1.0788 21.486-3.2967 30.441-4.9286 20.657-3.7636 53.286-5.4283 106.25-5.4203 48.489 0.012 80.849 1.626 96.061 4.8055 6.23 1.302 21.038 3.7307 32.907 5.3969 11.869 1.6663 25.724 4.1175 30.789 5.4473 5.0645 1.3296 14.761 3.4868 21.548 4.7934 6.7868 1.3068 16.156 3.7238 20.82 5.371 4.6644 1.6474 11.881 3.371 16.036 3.8301 4.1555 0.4593 12.489 2.6686 18.519 4.9097 6.0298 2.2412 13.575 4.416 16.768 4.8333 3.1923 0.4171 12.516 2.8835 20.72 5.4806 8.2038 2.5972 16.137 4.722 17.63 4.722 1.4925 0 9.0027 1.8502 16.689 4.1115 7.6866 2.2613 17.456 4.4807 21.71 4.9317 4.2536 0.451 14.989 2.6556 23.856 4.8992 8.8675 2.2435 20.186 4.438 25.151 4.8765 4.9658 0.4386 17.735 2.3291 28.376 4.2014 31.06 5.4648 52.509 6.6331 121.24 6.6039 66.981-0.029 86.565-1.1095 108.34-5.9809 7.094-1.5868 18.412-3.4993 25.151-4.2505 15.3-1.705 30.99-4.5532 37.913-6.8824 2.9128-0.9799 10.329-2.5573 16.48-3.505 6.1517-0.948 15.749-3.0765 21.328-4.7301 5.5788-1.6537 14.476-3.787 19.771-4.7409 5.2949-0.9541 13.577-3.1324 18.404-4.8409 4.8273-1.7085 13.534-3.8875 19.347-4.8422 5.8136-0.9548 14.618-3.1678 19.565-4.9178 4.9471-1.7501 13.363-3.7809 18.702-4.5129 5.3393-0.7321 14.061-2.8215 19.381-4.6432 5.3205-1.8216 12.286-3.6954 15.478-4.1639 3.1923-0.4685 11.898-2.4371 19.347-4.3748 11.833-3.0782 33.014-6.3654 81.903-12.711 20.894-2.7119 78.864-4.2643 111.75-2.9924 22.314 0.8632 34.479 1.9822 51.592 4.7463 12.317 1.9893 25.586 3.9574 29.488 4.3737 11.005 1.1743 27.265 4.321 32.17 6.2258 2.4417 0.9481 9.7567 2.5267 16.256 3.508s15.239 2.9078 19.422 4.2811c4.183 1.3734 12.731 3.5642 18.995 4.8685 6.2641 1.3043 14.68 3.9198 18.702 5.8123 4.022 1.8924 11.332 4.0891 16.244 4.8813 4.9118 0.7922 14.274 3.0464 20.804 5.009 12.766 3.8372 43.374 10.69 78.61 17.601 20.706 4.0611 23.937 4.3593 58.042 5.354 80.078 2.3356 154 0.8677 175.02-3.4753 6.6-1.3637 16.291-3.0671 21.536-3.7853 11.114-1.5218 13.46-0.6277 19.013 7.2452 4.3142 6.117 3.704 11.976-2.1993 21.115-5.43 8.4066-20.532 23.91-26.691 27.4-2.6496 1.5015-6.6822 4.2294-8.9614 6.062-2.2791 1.8327-6.6322 4.3767-9.6736 5.6534-3.0414 1.2769-6.6377 3.492-7.9918 4.9226-1.354 1.4307-4.8365 3.1895-7.7388 3.9085-2.9024 0.719-8.023 2.9454-11.379 4.9474-3.3564 2.0022-8.6761 4.367-11.822 5.2551-3.1455 0.8884-9.6862 3.226-14.534 5.1949-4.8484 1.9689-11.718 3.9499-15.264 4.402-3.5469 0.4521-10.664 2.1662-15.814 3.809-11.231 3.582-41.615 8.1362-72.538 10.872-25.06 2.2174-47.147 1.8019-66.676-1.2545-6.5221-1.0209-21.323-2.98-32.89-4.3537-11.863-1.4088-24.968-3.7426-30.06-5.3534-4.9658-1.5707-13.846-3.4367-19.735-4.1468-5.8885-0.71-16.626-2.8993-23.862-4.8646-7.2352-1.9655-18.379-4.4685-24.763-5.5621-6.3845-1.0936-16.542-3.2815-22.572-4.8619-6.0298-1.5804-15.316-3.2445-20.637-3.698-5.3205-0.4534-15.768-2.4296-23.217-4.3915-7.4487-1.9618-19.057-4.1168-25.796-4.789-6.7393-0.6721-18.464-2.2711-26.054-3.5536-24.078-4.0676-40.471-4.9951-88.094-4.9842-48.32 0.012-65.682 0.975-89.209 4.9528-7.6869 1.2997-20.361 2.9425-28.164 3.6509-7.8034 0.7083-18.831 2.6345-24.507 4.2806-5.6751 1.646-15.746 3.867-22.38 4.9356-6.634 1.0686-16.501 3.2464-21.927 4.8396-5.4258 1.5932-13.928 3.7577-18.894 4.8101s-13.382 3.2534-18.702 4.8911c-5.3203 1.6378-14.082 3.7613-19.47 4.7189-5.3881 0.9579-13.259 3.1089-17.492 4.7803s-12.593 3.8542-18.579 4.8504c-5.9863 0.9965-13.331 2.6358-16.322 3.6433-15.654 5.273-93.85 19.634-125.48 23.045-36.843 3.9734-94.017 5.0791-158 3.0553zm-1051.8-265.73c-9.4978-1.285-36.452-4.337-52.636-5.9599-10.151-1.018-24.952-3.4068-32.89-5.3087-7.9387-1.9017-18.207-4.0577-22.818-4.791-4.6111-0.7334-15.059-3.2387-23.217-5.5679-8.158-2.329-21.798-6.1039-30.31-8.3886-24.114-6.4719-36.69-9.9741-45.788-12.751-23.89-7.2922-34.048-9.9778-45.788-12.106-7.094-1.2859-23.346-4.5063-36.115-7.156-58.8-12.202-127.88-19.726-181.86-19.809-24.826-0.037-35.768 0.5811-67.07 3.7934-21.342 2.1901-46.821 5.6288-59.331 8.0078-12.06 2.293-28.021 5.0581-35.47 6.1443-7.4487 1.0863-18.062 3.3108-23.585 4.9432-5.5232 1.6324-15.39 3.731-21.927 4.6632-6.5364 0.9324-16.149 3.0666-21.362 4.7428-5.2127 1.6762-13.048 3.632-17.412 4.3462-4.3642 0.7141-13.159 2.8956-19.543 4.8478-6.3846 1.952-17.209 4.3288-24.054 5.2816-6.8452 0.9528-13.625 2.3248-15.067 3.0486-3.973 1.9952-16.95 4.5636-36.978 7.319-9.9316 1.3663-21.25 3.3075-25.151 4.3139-10.229 2.6381-58.006 4.4266-95.446 3.5727-51.017-1.1634-63.627-2.3134-93.123-8.4926-36.639-7.6756-40.114-8.5835-53.88-14.073-6.7197-2.6797-14.185-5.1718-16.59-5.538-4.6602-0.7096-44.821-18.862-59.37-26.834-24.16-13.239-52.182-37.554-61.118-53.031-3.7482-6.4919-9.9884-33.182-10.331-44.185-0.30672-9.8642 0.92517-10.69 18.666-12.51 10.362-1.0634 17.348-2.544 24.232-5.1351 5.3205-2.0026 11.995-4.0385 14.833-4.524 7.2933-1.2482 47.263-20.478 96.736-46.541 8.5128-4.4846 22.333-11.549 30.711-15.698s16.794-8.7664 18.702-10.26c1.9081-1.4937 5.5008-3.6752 7.9836-4.8476 2.4829-1.1723 9.1577-4.7171 14.833-7.8771s21.927-11.472 36.115-18.471c14.188-6.9991 37.695-18.826 52.237-26.282 44.406-22.767 128.47-60.915 139.93-63.501 2.118-0.4781 8.5026-2.6985 14.188-4.9345 5.6854-2.236 12.078-4.4055 14.207-4.821 5.7483-1.1222 25.244-20.361 38.02-37.518 5.9477-7.9874 15.164-19.932 20.481-26.544 5.3169-6.6121 16.313-21.301 24.435-32.642 8.1226-11.341 17.384-23.63 20.582-27.31 3.1974-3.68 6.4433-8.0522 7.2129-9.7164 0.76963-1.664 3.8029-5.7485 6.7406-9.0766 2.9375-3.3281 14.204-17.989 25.037-32.58 10.832-14.591 24.797-33.186 31.031-41.321 13.109-17.104 46.07-61.065 73.895-98.555 10.622-14.311 22.373-29.832 26.115-34.491 18.576-23.131 36.238-33.576 63.265-37.415 6.9985-0.994 17.078-3.2087 22.398-4.9214 5.3204-1.7127 13.736-3.6843 18.702-4.3814 4.9658-0.6969 15.123-3.0716 22.572-5.2767 7.4486-2.2052 17.026-4.396 21.282-4.8683 4.2563-0.4723 9.7703-1.6728 12.253-2.6679 6.7088-2.6881 15.099-4.8947 24.506-6.4453 4.611-0.7599 12.663-2.9829 17.893-4.94 5.4875-2.0534 15.034-4.2873 22.572-5.2821 7.1844-0.9483 15.273-2.5923 17.974-3.6535 2.7015-1.0614 13.333-3.8201 23.626-6.1307 10.292-2.3105 20.465-5.0506 22.605-6.0889 2.1402-1.0385 7.4702-2.4207 11.844-3.0717 4.3742-0.6508 14.047-3.0029 21.496-5.2266 7.4486-2.2238 16.943-4.423 21.098-4.8875 4.1557-0.4644 11.29-2.1633 15.855-3.7753 4.5647-1.6121 13.611-3.7912 20.104-4.8425 27.972-4.5294 36.754-10.656 59.687-41.639 4.1877-5.6578 16.088-20.906 26.446-33.886 10.358-12.98 25.322-32.191 33.255-42.691 26.166-34.635 69.613-85.15 86.221-100.25 10.935-9.9398 17.308-13.61 25.986-14.967 3.0459-0.476 10.011-2.6651 15.478-4.8649 5.4666-2.1997 12.538-4.3949 15.713-4.8782 3.1754-0.4833 10.721-2.6484 16.768-4.8113s14.017-4.2882 17.711-4.7231c3.694-0.4347 10.659-2.1838 15.478-3.8867 4.8186-1.7031 14.926-4.3766 22.461-5.9414 7.5349-1.5647 24.702-6.1141 38.148-10.109 13.447-3.9954 28.467-7.9191 33.378-8.7193 4.9114-0.8002 12.585-2.7437 17.052-4.3189 4.4673-1.5752 14.044-4.179 21.282-5.7863 7.2377-1.6073 16.047-4.0863 19.577-5.5089s10.432-3.379 15.339-4.3475c4.9067-0.9684 11.596-2.8816 14.864-4.2516 3.2687-1.3699 11.11-3.5363 17.425-4.8142 6.3152-1.2778 13.875-3.6389 16.799-5.247 2.9242-1.6079 8.7231-3.7581 12.886-4.7782 10.579-2.592 15.036-7.0745 23.643-23.778l7.1714-13.918-0.9273-238.41c-0.5102-131.13-1.3255-243.5-1.8122-249.71-1.0139-12.941-1.7114-13.84-12.337-15.903-13.2-2.5623-46.069-3.6145-151.71-4.8558-59.235-0.6961-131.39-1.7728-160.34-2.3928-59.59-1.276-59.939-1.3318-64.736-10.334-2.5095-4.7093-2.5796-7.2613-2.5796-93.88v-89.039l3.7532-5.3581c2.0644-2.947 6.3429-8.2174 9.5078-11.712l5.7546-6.3537h357.17l17.656-11.497 0.4187-168.44 0.4185-168.44 2.7144-3.4162c4.2617-5.3636 9.7038-7.6335 21.334-8.8985 5.9271-0.6447 43.57-1.7097 83.651-2.3667 40.081-0.6571 79.657-1.8422 87.947-2.6338 11.642-1.1117 15.493-1.112 16.92-1e-3 2.5805 2.0094 3.294 26.76 4.8203 167.21 1.6557 152.36 2.7945 170.75 11.274 182.14 4.1256 5.5389 14.719 11.945 24.142 14.601 9.1255 2.5714 57.978 3.9378 192.18 5.3751 139.84 1.4977 142.73 1.7877 157.48 15.839l6.3305 6.0307-0.4244 65.608c-0.2334 36.085-0.9052 74.734-1.4926 85.887-1.0164 19.296-1.2523 20.587-4.8662 26.625-2.0891 3.4902-5.7111 7.571-8.0494 9.0686-4.1747 2.6741-4.9497 2.7234-43.077 2.7429-72.388 0.037-242.48 2.3513-269 3.66-29.333 1.4474-44.569 3.5024-50.544 6.8171-2.2712 1.2602-6.2862 5.852-9.3401 10.682l-5.3566 8.4715 0.4634 225.45 0.4633 225.45 21.487 10.083c11.818 5.5454 24.389 10.667 27.936 11.38 3.5469 0.7139 13.704 4.519 22.572 8.4559 8.8675 3.937 20.766 8.8476 26.441 10.913s13.174 5.1375 16.664 6.8277c3.49 1.6903 7.3563 3.0732 8.5921 3.0732 2.4526 0 18.434 6.2042 29.329 11.386 3.7741 1.795 11.9 4.8312 18.058 6.7472 11.95 3.7181 56.597 22.93 66.103 28.444 9.698 5.6257 19.153 15.247 26.63 27.099 6.0263 9.5525 24.741 44.69 61.635 115.72 8.8428 17.025 24.878 48.224 46.029 89.556 19.82 38.731 36.808 69.217 42.947 77.069 5.6468 7.2231 19.301 13.685 41.796 19.779 8.7899 2.3813 18.286 5.4328 21.102 6.7809 2.8164 1.3481 9.2173 3.2526 14.224 4.2321 5.0069 0.9796 13.066 3.3634 17.91 5.2974 4.8436 1.934 10.985 3.8979 13.648 4.3643 2.6626 0.4664 8.7329 2.3998 13.49 4.2966 4.7568 1.8969 12.739 4.256 17.738 5.2426 4.999 0.9867 12.452 3.387 16.563 5.3338 4.1105 1.947 10.639 4.0915 14.508 4.7655 3.8687 0.6741 10.856 2.8374 15.528 4.8077 4.6716 1.9701 11.056 3.976 14.188 4.4572 3.1317 0.4814 10.641 2.6541 16.688 4.8284 6.0467 2.1743 13.592 4.3609 16.768 4.8591 3.1754 0.4984 9.5462 2.674 14.157 4.8346 4.611 2.1606 12.232 4.5492 16.936 5.3079 4.7036 0.7586 12.273 2.9626 16.822 4.8978 4.5486 1.9352 10.567 3.9013 13.375 4.3695 2.8076 0.4679 9.0672 2.458 13.91 4.4221 4.8427 1.9642 12.706 4.3345 17.475 5.2675 4.7685 0.9328 12.414 3.2795 16.991 5.2149s11.435 4.137 15.24 4.8924c3.8052 0.7556 10.77 2.9433 15.478 4.8618 4.7074 1.9185 11.171 3.8691 14.363 4.3351 11.684 1.7054 23.17 10.325 40.863 30.665 6.1773 7.1017 14.456 16.193 18.397 20.204 3.941 4.0104 15.507 16.996 25.702 28.857 10.195 11.861 24.051 27.369 30.791 34.461s20.744 22.416 31.121 34.051c10.377 11.635 25.202 27.701 32.945 35.702 7.7429 8.0005 21.908 23.532 31.478 34.515 9.5701 10.983 24.794 28.138 33.831 38.122s21.468 23.872 27.624 30.86c6.156 6.9891 17.042 18.29 24.19 25.112l12.998 12.405 44.628 0.012c65.388 0.014 85.135 2.1179 100.61 10.713 22.268 12.368 47.242 26.109 68.488 37.685 12.827 6.989 26.344 14.844 30.037 17.454s9.1139 5.4248 12.047 6.2528c2.9327 0.8282 7.8825 3.321 11 5.5397 3.1174 2.2187 12.617 7.9108 21.111 12.649 8.4938 4.7383 21.538 12.042 28.986 16.23 63.883 35.92 167.15 87.131 183.91 91.208 4.2892 1.0429 11.639 3.5299 16.332 5.5267 4.6937 1.9969 10.748 4.1479 13.455 4.78 2.7067 0.632 9.7023 2.7562 15.546 4.7204 6.8708 2.3093 14.618 3.8722 21.927 4.4234 16.73 1.262 19.963 4.1016 14.406 12.654-1.4797 2.2773-3.5457 7.9893-4.5908 12.693-1.0455 4.704-3.575 11.282-5.6216 14.618-5.47 8.916-19.402 24.767-27.285 31.042-7.8455 6.2459-26.406 18.032-37.836 24.026-4.2564 2.2322-10.205 5.6243-13.22 7.5381-3.0145 1.9137-8.1493 4.2329-11.411 5.1539-3.2615 0.9211-8.1174 3.0328-10.791 4.6928-2.6734 1.6601-7.4056 3.6431-10.516 4.4069-3.1102 0.7639-9.4277 3.1911-14.039 5.3939-4.6112 2.2028-10.996 4.4096-14.188 4.9041-3.1922 0.4944-12.482 3.2397-20.644 6.1005-17.831 6.2503-72.491 17.892-94.15 20.053-8.3425 0.8322-33.74 1.5219-58.042 1.5763-42.634 0.096-43.422 0.052-59.249-3.2456-8.8225-1.8381-23.192-4.1272-31.932-5.0868-8.74-0.9597-22.126-3.3639-29.748-5.3427-7.6211-1.9788-21.982-5.3167-31.914-7.4175-19.508-4.1264-24.753-5.4222-46.433-11.471-7.8033-2.1774-17.668-4.3527-21.922-4.8343-4.2535-0.4817-13.833-2.67-21.287-4.863-7.4544-2.1929-17.034-4.3669-21.287-4.8312-4.2535-0.4641-13.828-2.1135-21.277-3.6651-14.49-3.0188-25.253-4.5768-45.788-6.6291-7.0939-0.7089-20.734-2.3586-30.31-3.6659-23.046-3.146-58.292-4.7942-102.69-4.8018-33.166 0-37.568 0.2416-51.592 2.8976-8.433 1.5969-20.847 3.5453-27.586 4.3295-32.95 3.8346-41.562 5.0716-46.355 6.6583-2.8589 0.9465-11.446 2.6128-19.083 3.7032-7.637 1.0901-22.011 3.8114-31.943 6.0473-9.9316 2.2357-20.96 4.4175-24.506 4.8482-3.547 0.4309-9.6414 2.199-13.543 3.9292-3.9017 1.7302-13.479 4.604-21.282 6.3862-7.8034 1.7824-22.314 5.45-32.245 8.1505-37.799 10.278-72.219 18.525-82.347 19.729-5.7857 0.6881-15.453 2.5693-21.483 4.1803-14.093 3.7655-65.716 9.9038-98.026 11.656-52.308 2.8369-149.24-3.1887-172.06-10.696-2.7683-0.9104-13.099-3.0266-22.958-4.7023-9.8585-1.6759-21.626-4.3545-26.151-5.9525-4.5246-1.5978-11.026-3.2833-14.447-3.7453-3.4212-0.4621-11.154-2.6285-17.184-4.8142-6.0299-2.1856-13.865-4.3627-17.412-4.8379-3.547-0.475-10.257-2.3643-14.91-4.1982-4.6539-1.8339-14.231-4.5529-21.282-6.0421-7.0513-1.4894-18.044-4.2516-24.429-6.1381-29.306-8.6604-86.983-20.667-121.24-25.239-26.865-3.5853-44.056-4.8738-81.903-6.1384-47.763-1.596-93.06 0.014-115.85 4.1205-9.4486 1.7018-23.51 3.6547-31.247 4.3393s-18.87 2.0871-24.74 3.1164c-18.722 3.2837-79.834 17.36-93.865 21.62-7.4487 2.2618-16.445 4.4813-19.992 4.9326-3.5469 0.451-12.255 2.8917-19.351 5.4235-7.0963 2.532-21.026 6.6043-30.956 9.0499-9.9292 2.4453-22.696 5.8033-28.372 7.4623-23.716 6.9325-67.684 15.443-86.417 16.728-6.3845 0.4378-17.041 1.5896-23.682 2.5594-19.988 2.9195-46.421 4.1087-87.887 3.9539-21.637-0.081-40.79-0.3432-42.564-0.583zm1801.6-210.05c2.6965-2.5301 1.7721-4.0706-8.0381-13.395-5.272-5.0114-11.066-11.853-12.876-15.204-1.8095-3.3506-17.244-23.42-34.298-44.598-17.055-21.178-39.536-49.126-49.959-62.105-10.423-12.98-26.832-32.858-36.464-44.173-21.341-25.071-41.986-50.15-47.322-57.486-2.1789-2.9953-8.578-10.347-14.22-16.338s-14.318-16.066-19.278-22.389c-4.9608-6.3234-15.252-18.849-22.869-27.835-40.876-48.221-45.268-52.702-82.116-83.78-32.276-27.222-50.852-41.47-58.601-44.948-22.072-9.9082-26.4-11.645-31.877-12.794-3.3446-0.7015-10.31-2.8343-15.478-4.7397-16.759-6.1788-64.043-19.859-66.091-19.122-3.1332 1.1281-2.5005 4.0658 5.8219 27.034 4.2973 11.86 8.3924 24.436 9.1001 27.948 0.7076 3.5115 2.9943 10.15 5.0815 14.752 2.0871 4.6021 4.4473 11.222 5.2448 14.712 0.7976 3.4892 3.145 10.081 5.2167 14.649s4.3517 11.413 5.0669 15.211c0.715 3.7979 3.544 13.713 6.2864 22.033 19.91 60.405 23.308 72.209 25.9 89.972 1.9666 13.478 1.0625 16.9-5.5961 21.179-8.4123 5.4065-15.93 8.6605-20.007 8.6605-8.9294 0-35.517-22.264-47.019-39.372-3.7188-5.5313-11.312-16.499-16.874-24.372-16.811-23.797-44.397-64.426-52.037-76.642-3.9548-6.3235-8.2174-12.586-9.4725-13.918-1.2549-1.3313-5.3241-7.3219-9.0425-13.312-3.7183-5.9906-8.6285-13.07-10.911-15.733-2.2828-2.6624-5.7587-7.8361-7.724-11.497-5.1385-9.5717-14.232-22.578-21.056-30.118-7.2994-8.0644-15.249-13.598-63.326-44.083-55.194-34.997-66.676-42.795-76.96-52.268-7.0844-6.5251-9.8288-10.069-11.945-15.423-1.5108-3.8235-4.312-9.2695-6.225-12.102-4.1079-6.0834-17.362-31.905-36.187-70.502-7.4672-15.309-15.867-32.118-18.666-37.353-2.7989-5.2351-7.0905-14.176-9.5367-19.87-2.4461-5.6933-6.1146-12.713-8.1525-15.6-2.0377-2.8864-4.0784-7.1154-4.5346-9.3975-0.4563-2.2821-2.7783-7.186-5.1603-10.898-2.3818-3.7113-4.7244-8.7852-5.2055-11.275-0.4812-2.4901-7.2207-17.224-14.976-32.743-7.7558-15.518-14.772-30.767-15.592-33.886-0.8199-3.119-3.1682-7.9851-5.2184-10.814-2.0504-2.8285-4.4763-7.476-5.391-10.328-0.9145-2.8518-3.4988-7.5629-5.7425-10.469-2.2439-2.9063-4.0797-6.2588-4.0797-7.45 0-3.1515-11.329-23.452-14.614-26.187-4.1715-3.4731-19.112-9.2668-35.017-13.579-7.7579-2.1033-20.224-6.0419-27.703-8.7525-7.4787-2.7107-18.821-6.4141-25.206-8.23s-13.655-4.452-16.156-5.8579c-2.5014-1.406-8.7537-3.3864-13.894-4.401-5.1404-1.0147-13.013-3.4531-17.494-5.4188-4.4809-1.9657-11.195-3.9535-14.921-4.4172-4.294-0.5346-8.1347-1.9177-10.491-3.7783-4.0915-3.2302-9.4618-3.8969-13.808-1.7141-1.5497 0.7781-5.8782 5.1962-9.6189 9.8176-3.7406 4.6215-22.237 27.346-41.103 50.499-30.448 37.368-68.239 87.788-68.239 91.046 0 0.6549-1.6561 2.9796-3.6803 5.166-5.3168 5.7431-6.6383 8.6133-6.6383 14.419 0 3.8415 0.8165 5.9565 3.2007 8.2916 4.447 4.3552 22.386 38.725 47.071 90.185 11.495 23.962 25.425 52.554 30.956 63.537 5.5309 10.983 10.37 21.606 10.752 23.607 0.3829 2.0012 2.7067 6.7714 5.1642 10.601 2.4575 3.8291 4.8688 8.9656 5.3585 11.414 0.4895 2.4489 2.5952 7.6218 4.6791 11.495 2.0841 3.8738 4.6151 11.094 5.6248 16.045 1.0096 4.9509 2.7818 10.357 3.9385 12.013 3.4181 4.8945 5.7155 20.413 6.6325 44.797 1.011 26.884 1.3635 26.146-12.482 26.146-6.4801 0-9.9503-0.6866-14.264-2.822-13.132-6.5013-31.829-16.952-36.326-20.305-2.6558-1.9802-7.0683-4.3418-9.8053-5.2478-2.7372-0.9061-7.9843-3.7835-11.66-6.3942-3.6761-2.6107-11.452-7.0978-17.281-9.9712-5.8281-2.8736-12.048-6.4589-13.821-7.9674-1.7735-1.5084-9.1154-5.747-16.315-9.419-23.731-12.103-31.793-16.605-36.124-20.173-2.3531-1.9386-6.5401-4.0961-9.3044-4.7946-2.7643-0.6984-5.819-2.1768-6.7885-3.2852-3.0618-3.5014-16.723-11.192-21.316-12.001-6.147-1.0819-8.8936 1.6517-12.167 12.109-1.4772 4.7194-4.0157 10.759-5.6412 13.422-1.6252 2.6625-3.3343 6.747-3.7979 9.0767-0.4634 2.3297-6.4738 17.471-13.356 33.647l-12.513 29.411 4.1925 7.5873c7.859 14.223 16.854 25.552 42.877 54.007 42.948 46.961 74.964 78.395 113.5 111.43 22.867 19.607 73.319 59.447 89.394 70.591 8.3903 5.8165 17.387 12.372 19.992 14.567 12.12 10.213 81.154 55.056 105.34 68.43 6.3846 3.5299 16.252 9.2765 21.927 12.77s17.574 9.7452 26.441 13.892c19.848 9.2816 45.933 22.561 50.412 25.664 2.3782 1.6478 4.965 2.2001 9.0287 1.9275l5.6952-0.3819-0.1816-9.6818c-0.1047-5.551-1.9136-17.427-4.2404-27.835-2.258-10.1-4.6529-25.67-5.3982-35.096-1.522-19.25-10.044-57.768-16.334-73.824-2.0859-5.3249-4.2005-12.653-4.6989-16.284-0.4985-3.6315-2.8236-10.984-5.1671-16.338-2.3434-5.3545-4.6644-11.914-5.1576-14.576-0.4931-2.6625-3.4294-12.193-6.5249-21.179-9.1375-26.525-12.486-43.389-13.235-66.665-0.7373-22.884-0.3298-24.329 7.8376-27.809 9.3629-3.9887 21.182-2.5088 39.963 5.0037 5.0975 2.0391 12.973 4.5163 17.501 5.5049 4.5279 0.9886 11.493 3.3317 15.478 5.2067 3.9848 1.8752 20.885 9.1583 37.556 16.185 32.39 13.652 70.132 31.722 83.838 40.14 4.6111 2.8321 11.084 6.6079 14.384 8.3906 8.9213 4.8194 17.195 12.115 23.967 21.133 3.3191 4.4205 9.2974 11.85 13.285 16.509 3.9873 4.6593 17.9 21.814 30.918 38.122 13.018 16.308 29.287 36.458 36.156 44.778 6.8681 8.3204 20.796 26.292 30.951 39.937 10.155 13.645 21.265 27.989 24.689 31.874s6.2255 7.5512 6.2255 8.146c0 1.2036 40.814 58.505 46.602 65.428 7.2663 8.6907 7.335 8.6992 56.96 7.0368 58.61-1.9633 238.89-0.8447 287.9 1.7863 80.231 4.3074 98.223 5.7101 118.66 9.2514 31.433 5.4459 53.001 7.1908 55.849 4.5187zm-380.33-668.2c-14.254-3.7174-32.045-17.779-38.811-30.675-3.65-6.9568-3.9488-8.4102-3.3945-16.514 0.864-12.631 5.2607-19.578 40.21-63.53 16.233-20.414 30.155-38.482 30.938-40.15 0.7834-1.6686 5.1387-8.442 9.6786-15.052s9.3028-14.242 10.584-16.96c1.2814-2.718 5.0055-8.7463 8.2756-13.396 9.16-13.024 51.968-93.774 54.349-102.52 1.1371-4.1766 3.6724-10.589 5.6338-14.25 1.9615-3.661 6.0132-13.191 9.0038-21.179 2.9904-7.9874 7.4433-18.837 9.8953-24.11 2.4519-5.2727 5.2803-12.897 6.2854-16.943 1.005-4.0457 3.5293-11.72 5.6095-17.054 2.0802-5.3342 4.2047-12.414 4.721-15.733 0.5161-3.3187 2.8364-10.391 5.156-15.716 2.3196-5.325 4.8796-13.766 5.6891-18.758 0.8093-4.9921 2.9405-13.433 4.7359-18.758 1.7954-5.3249 4.0965-15.672 5.1135-22.994 1.0171-7.3218 2.7032-17.397 3.7468-22.389 2.8796-13.775 4.2383-22.976 6.5227-44.173 1.1478-10.65 3.2142-24.81 4.5921-31.466 6.6242-31.999 5.7951-160.06-1.338-206.68-1.3467-8.8013-2.823-21.176-3.2808-27.5-0.4577-6.3234-2.5098-18.619-4.56-27.324-2.0504-8.7047-4.6094-21.358-5.6868-28.119-1.0774-6.7607-3.3979-16.95-5.1567-22.642-1.7588-5.6923-3.8788-14.823-4.7114-20.29-0.8325-5.4672-2.8694-13.004-4.5268-16.748-1.657-3.7445-4.828-13.82-7.0464-22.389-2.2185-8.5697-7.2133-23.365-11.1-32.878-3.8864-9.5131-7.8607-20.133-8.8321-23.599-0.9715-3.4664-3.5347-9.2979-5.6961-12.959-2.1615-3.6609-3.9404-7.7608-3.9533-9.1108-0.013-1.35-2.1083-6.5237-4.6564-11.497-2.5484-4.9734-5.9875-12.403-7.6426-16.51-3.8149-9.4668-35.119-68.132-47.205-88.464-12.428-20.908-28.354-45.329-35.303-54.136-3.1511-3.9937-10.198-13.524-15.66-21.179-14.232-19.946-51.181-62.921-72.314-84.11-27.819-27.893-72.181-68.312-96.486-87.912-28.228-22.763-62.876-48.792-70.295-52.81-3.1923-1.7287-7.6628-4.6351-9.9344-6.4591-14.684-11.79-83.017-53.705-102.66-62.974-5.6811-2.6802-15.532-7.8928-21.891-11.584-6.3591-3.6908-14.126-7.4345-17.259-8.3193-3.1334-0.88479-8.1438-3.2346-11.134-5.2216-2.9906-1.9871-7.1788-3.997-9.3069-4.4664-2.1282-0.46945-6.966-2.6992-10.751-4.9549-3.7846-2.2557-8.7182-4.4232-10.963-4.8167-2.2451-0.39332-12.054-4.1582-21.797-8.3662s-21.352-8.7202-25.796-10.027c-4.4447-1.3069-11.854-3.9884-16.465-5.959-4.611-1.9706-11.497-4.2009-15.302-4.9565-3.8052-0.75554-10.77-2.9523-15.478-4.882-4.7074-1.9296-11.461-3.8945-15.008-4.3666-3.5471-0.47198-11.383-2.6292-17.412-4.7937-6.0299-2.1646-15.378-4.5338-20.773-5.2651-5.3954-0.73121-14.102-2.9358-19.347-4.899-5.2455-1.9632-14.181-4.1663-19.856-4.8956-5.6752-0.72916-23.378-3.7394-39.339-6.6892-56.947-10.525-71.379-11.565-171.54-12.362-92.309-0.73484-125.06 0.33766-153.49 5.0258-10.286 1.6964-24.506 3.6445-31.6 4.3291-7.094 0.6845-19.863 2.8199-28.376 4.7452-8.5128 1.9253-20.145 4.3222-25.85 5.3263-38.463 6.7703-108.75 25.464-127.64 33.946-4.9658 2.2301-11.06 4.4503-13.543 4.9338-2.483 0.4836-8.688 2.6741-13.789 4.868-5.1011 2.1939-11.076 4.36-13.277 4.8136-4.7549 0.97992-65.291 27.847-86.438 38.362-8.1579 4.0568-18.896 9.8288-23.861 12.827-4.9658 2.998-14.833 8.427-21.927 12.065-7.094 3.6376-15.076 8.4578-17.739 10.712-2.6623 2.2539-5.4841 4.0979-6.2705 4.0979-3.7406 0-64.005 41.723-92.719 64.192-65.497 51.253-130.6 115.84-187.39 185.9-8.4053 10.37-39.471 53.968-44.714 62.753-2.3836 3.9938-6.1805 9.726-8.4376 12.738-8.8634 11.829-51.172 88.898-59.892 109.1-2.1052 4.8771-5.3093 11.547-7.1201 14.821s-3.2922 6.8737-3.2922 7.9984c0 1.1248-1.9668 6.07-4.3704 10.99-2.4037 4.9195-4.7863 10.851-5.2945 13.18-0.5083 2.3297-2.8169 8.3203-5.1303 13.312-2.3134 4.9922-4.8725 11.998-5.6869 15.568-0.8144 3.5704-3.1485 10.106-5.187 14.523-2.0384 4.4169-4.3625 11.672-5.1647 16.122-0.802 4.4501-3.2253 13.436-5.3852 19.969-5.8685 17.75-11.109 39.124-14.683 59.891-1.7558 10.202-4.321 23.722-5.7004 30.046-2.824 12.945-4.5974 26.668-6.6463 51.434-0.77092 9.3187-2.2809 22.117-3.3556 28.44-2.7679 16.287-3.7348 76.929-1.8549 116.33 2.6626 55.806 6.8528 97.746 12.439 124.5 1.7371 8.3203 3.782 20.299 4.544 26.618 0.76203 6.32 3.0629 16.404 5.1131 22.409 2.05 6.0052 4.6006 15.201 5.6678 20.434 1.0673 5.2338 3.1612 12.577 4.6532 16.318 1.4919 3.7412 4.1471 12.52 5.9002 19.509 1.7532 6.989 4.9658 17.609 7.139 23.599 15.57 42.919 24.722 66.226 36.024 91.735 13.365 30.168 39.371 80.928 44.365 86.595 1.552 1.7615 4.2793 6.1979 6.0605 9.8588 4.0643 8.3529 27.586 43.206 41.912 62.104 20.515 27.062 28.625 42.997 26.863 52.784-1.9885 11.044-13.758 28.405-24.849 36.654-12.577 9.354-29.838 10.907-44.805 4.0322-14.709-6.757-40.911-34.793-59.988-64.189-4.6111-7.1052-11.508-17.367-15.327-22.804-3.8185-5.437-7.5473-11.503-8.2864-13.48-0.7389-1.9767-3.1287-5.7952-5.3104-8.4854-4.7317-5.8342-36.242-62.716-46.607-84.133-4.0265-8.3203-8.7374-19.136-10.469-24.034-1.7313-4.8988-6.3521-15.246-10.268-22.994-3.9164-7.748-8.2082-18.022-9.5375-22.83-1.3293-4.8086-4.1242-12.433-6.211-16.943-2.0868-4.51-4.2074-10.106-4.7123-12.436-0.50497-2.3297-2.5764-7.821-4.6032-12.203-2.0268-4.3821-4.3757-12.006-5.2197-16.943-0.84393-4.9367-2.8344-11.429-4.423-14.427-1.5887-2.998-4.0897-10.622-5.5577-16.943-1.4681-6.3208-4.1433-15.538-5.9449-20.483-1.8016-4.9449-3.9117-13.931-4.6891-19.969-0.77738-6.0379-2.7997-14.79-4.4938-19.449-2.7949-7.6867-6.0967-25.271-13.521-72.008-4.6932-29.546-11.548-99.064-12.351-125.26-0.90533-29.536 1.2896-84.687 3.9976-100.45 1.0293-5.9905 2.7865-21.239 3.905-33.886 2.3165-26.194 3.1029-31.494 8.5293-57.485 6.7946-32.544 8.9317-40.038 17.257-60.511 11.436-28.122 15.404-40.49 19.223-59.906 3.6809-18.717 19.449-68.929 24.482-77.961 1.7633-3.1641 3.6204-7.8844 4.1268-10.49 0.50651-2.6052 2.824-8.3092 5.15-12.675 2.326-4.3663 5.1773-10.999 6.3362-14.74 1.1589-3.7404 3.3046-8.2292 4.7682-9.9749 1.4637-1.7459 3.4793-5.7252 4.4792-8.8426 0.99987-3.1176 3.3057-7.7777 5.1239-10.356 1.8184-2.5779 4.1137-7.2395 5.1011-10.359 0.98722-3.1193 3.5042-8.0976 5.5931-11.063 2.089-2.9654 4.2146-7.0252 4.7237-9.0221 0.50897-1.9968 2.6609-6.0774 4.7817-9.0678 2.121-2.9905 4.6489-7.5449 5.6175-10.121 0.96852-2.5759 3.4493-6.4877 5.5129-8.6929 2.0634-2.2051 4.1636-5.7685 4.6668-7.9187 0.5035-2.1501 2.7987-6.4112 5.1009-9.4691 2.302-3.0579 6.678-9.6442 9.7243-14.636 3.0461-4.9921 10.093-15.708 15.66-23.812 5.5667-8.1043 10.121-15.319 10.121-16.032s1.9263-3.3405 4.2804-5.8385c2.3543-2.498 5.6511-6.7203 7.3263-9.3828 4.4079-7.0056 30.791-41.8 47.866-63.127 19.503-24.359 75.348-83.408 107.51-113.68 24.11-22.692 48.149-43.178 80.658-68.736 15.545-12.221 64.955-46.679 75.086-52.364 3.7491-2.1037 9.595-6.0521 12.991-8.7741 3.3958-2.722 6.7439-4.9492 7.4401-4.9492 0.6961 0 7.0355-3.5584 14.088-7.9077 7.0522-4.3492 15.022-8.7567 17.711-9.7943 2.6891-1.0376 6.3685-3.1943 8.1764-4.7926 4.1679-3.6844 43.83-23.993 74.102-37.942 48.128-22.178 90.471-38.214 136.32-51.625 7.5835-2.2184 18.393-5.6996 24.021-7.7362 5.6283-2.0365 14.514-4.4719 19.747-5.4119s14.157-3.0825 19.832-4.7611c5.6752-1.6786 14.672-3.6613 19.992-4.4061 5.3204-0.74479 14.317-2.7114 19.992-4.3701 5.6752-1.6588 19.878-4.3612 31.562-6.0054 11.684-1.6442 26.484-4.0711 32.89-5.393 6.406-1.3219 22.7-3.1935 36.209-4.159 13.509-0.96557 30.922-2.5833 38.694-3.595 22.899-2.9805 53.677-4.2483 103.13-4.2483 49.552 0 82.209 1.3433 99.96 4.1117 15.053 2.3475 21.048 2.9606 41.919 4.287 9.9317 0.63117 24.171 2.2592 31.643 3.6179s23.36 3.8226 35.306 5.4754c11.947 1.6528 28.179 4.614 36.072 6.5805 7.8932 1.9665 22.187 5.213 31.764 7.2144 9.5769 2.0014 24.087 5.5264 32.245 7.8332 8.158 2.3068 20.46 5.587 27.338 7.2893 6.8777 1.7023 15.294 4.4556 18.702 6.1183 3.4085 1.6628 8.8092 3.3937 12.002 3.8466 3.1923 0.45275 10.512 2.6345 16.266 4.8484 5.7541 2.2139 12.881 4.3881 15.837 4.8317 2.9564 0.44354 8.6564 2.6603 12.667 4.9262 4.0103 2.2659 9.8045 4.6481 12.876 5.294 6.9597 1.4634 72.613 29.645 95.197 40.863 31.672 15.732 37.412 18.763 40.629 21.455 1.7735 1.484 5.9761 3.8181 9.339 5.1871 3.3631 1.3689 11.834 6.0618 18.825 10.428 6.9908 4.3667 13.379 7.9395 14.196 7.9395s3.8853 2.0422 6.8178 4.5383c2.9326 2.4961 7.5279 5.6275 10.212 6.9588 8.6134 4.272 34.832 21.612 55.403 36.643 72.351 52.862 134.26 106.96 183.82 160.62 32.341 35.021 82.363 97.07 90.247 111.95 1.2348 2.3297 3.893 5.8695 5.9072 7.8665 2.0144 1.9968 8.2751 11.527 13.913 21.179 5.6379 9.6515 12.858 21.382 16.045 26.068 13.466 19.8 62.219 116.25 67.542 133.62 1.1324 3.6956 3.3977 8.8978 5.0336 11.56 1.636 2.6625 5.0845 11.549 7.6632 19.748 2.5786 8.1988 7.2386 21.269 10.355 29.045 3.1169 7.7761 7.9782 23.195 10.803 34.265 2.8249 11.07 7.4558 27.68 10.291 36.912 2.8353 9.2317 6.3309 22.503 7.7682 29.492 1.4374 6.989 4.3838 21.315 6.5479 31.836 4.823 23.448 12.32 72.466 14.152 92.532 5.609 61.441 3.8344 187.91-3.2561 232.04-1.0696 6.6563-3.6672 23.094-5.7726 36.529-2.1053 13.435-4.995 27.867-6.4214 32.071-1.4264 4.2042-3.4669 13.362-4.5345 20.352-1.0675 6.989-3.3764 17.674-5.131 23.745-1.7545 6.0704-4.3522 16.337-5.7726 22.815-1.4206 6.4779-3.7363 14.224-5.1457 17.214-1.4097 2.99-3.4763 10.01-4.5926 15.599-1.1163 5.5897-3.6664 13.571-5.6669 17.737-2.0003 4.1657-4.2958 10.495-5.1011 14.066-0.8052 3.5704-3.1356 10.106-5.1789 14.523-2.0432 4.4169-4.128 9.937-4.6329 12.267s-2.6624 8.0045-4.794 12.611c-2.1318 4.6063-4.9343 11.959-6.2278 16.339-2.9435 9.9663-28.45 63.569-44.387 93.283-12.226 22.794-42.814 72.583-51 83.016-2.4829 3.1642-6.8361 9.7695-9.6736 14.678-2.8376 4.9089-8.6813 13.391-12.986 18.849-4.3046 5.4583-10.618 13.659-14.03 18.223-3.4117 4.5644-10.95 13.55-16.752 19.968-5.8017 6.4183-11.541 13.031-12.753 14.695-3.4531 4.7381-20.071 16.687-28.607 20.569-9.3738 4.2633-17.373 5.2891-25.242 3.2369zm698.4-37.115c-8.67-1.1929-15.132-3.2298-23.594-7.4381-3.8243-1.9017-7.9067-3.4576-9.0723-3.4576-1.1654 0-5.2284-1.8796-9.029-4.177-3.8005-2.2975-8.6037-4.5263-10.674-4.9529-2.0703-0.4266-7.9377-2.5829-13.039-4.7918s-11.446-4.3967-14.1-4.8616c-2.6537-0.465-8.1676-2.7421-12.253-5.0603-4.0855-2.3182-9.341-4.5121-11.679-4.8755-2.3377-0.3634-12.21-4.3079-21.938-8.7657-9.728-4.4576-21.455-9.2508-26.06-10.651-4.605-1.4006-15.628-5.763-24.495-9.6941-8.8674-3.9312-19.315-8.126-23.216-9.322-3.9018-1.1958-14.38-5.5868-23.285-9.7578-8.905-4.1709-18.772-8.2135-21.927-8.9832-3.1548-0.7699-8.9461-3.2301-12.87-5.4672-3.9235-2.2372-8.857-4.4476-10.963-4.9121-2.1064-0.4646-12.826-4.7669-23.822-9.5607-10.996-4.7938-27.991-11.903-37.766-15.798-15.703-6.2563-18.676-7.9196-25.509-14.272-4.2543-3.9549-9.2434-9.6056-11.087-12.557-3.172-5.0784-3.3212-6.0633-2.782-18.343 0.503-11.456 1.007-13.73 4.3-19.407 7.7347-13.334 27.055-25.547 42.023-26.563 9.3218-0.6326 15.716 1.2056 37.271 10.714 8.8674 3.9118 18.734 7.6588 21.927 8.3264 3.1923 0.6677 18.831 6.9639 34.752 13.992 15.922 7.0278 32.116 13.554 35.988 14.502s9.9447 3.4195 13.496 5.4908c3.5511 2.0714 8.2518 4.0668 10.446 4.4344 2.194 0.3675 12.986 4.676 23.981 9.5745 10.996 4.8985 22.792 9.4797 26.215 10.181 3.4225 0.7009 9.2267 2.7033 12.898 4.4497 14.185 6.7475 51.393 22.156 57.838 23.952 3.723 1.0374 8.9088 3.2775 11.524 4.9781s7.5737 3.8088 11.018 4.6849c3.4449 0.876 10.6 3.565 15.9 5.9755 5.3005 2.4102 10.766 4.3824 12.146 4.3824 1.3799 0 6.1441 1.8749 10.587 4.1663 4.4431 2.2914 10.408 4.7551 13.257 5.4747 9.0118 2.2769 20.872 10.738 26.921 19.206 10.686 14.958 12.244 30.977 4.4927 46.198-4.5038 8.8445-11.764 17.389-16.872 19.855-7.4194 3.5823-26.863 5.0689-40.948 3.131zm-3087.2-3.4407c-16.222-6.122-29.39-19.719-31.588-32.618-1.1129-6.53 2.5572-23.208 7.1604-32.54 5.737-11.63 12.367-17.543 24.891-22.198 5.8406-2.1711 16.133-6.5218 22.872-9.6683 6.7393-3.1466 15.736-6.654 19.992-7.794 4.2564-1.1404 15.454-5.5429 24.883-9.7834 9.4294-4.2407 20.583-8.5369 24.787-9.5473 4.2032-1.0103 11.869-3.8362 17.036-6.2796 13.312-6.2957 29.218-12.571 31.864-12.571 1.2376 0 6.6568-2.1784 12.043-4.8409 5.3859-2.6624 10.868-4.8408 12.182-4.8408 1.3144 0 6.7266-1.9639 12.027-4.3639 5.3005-2.4002 12.37-5.1376 15.71-6.0831 3.34-0.9455 18.848-7.1305 34.462-13.744 15.614-6.6141 31.716-12.933 35.783-14.042 4.0666-1.1092 10.953-3.8524 15.303-6.096 4.35-2.2435 9.0525-4.0791 10.45-4.0791 1.3975 0 7.1534-2.0926 12.791-4.6502s12.456-5.038 15.151-5.5122c2.6957-0.474 7.5706-2.1938 10.833-3.8214 11.401-5.688 28.378-3.4275 42.982 5.7231 25.935 16.25 33.216 50.657 14.142 66.826-10.378 8.7973-25.208 16.41-38.111 19.563-3.8827 0.9489-9.8198 3.0378-13.194 4.6421-3.3739 1.6042-20.341 8.4718-37.705 15.262-37.506 14.666-96.529 38.255-108.31 43.29-4.6111 1.9699-10.457 3.9328-12.991 4.3619-2.5338 0.4292-6.5456 2.1224-8.915 3.7626-2.3694 1.6402-7.5168 3.8574-11.439 4.9273-3.9218 1.0697-10.938 3.7257-15.591 5.902-4.6534 2.1765-10.476 4.3201-12.94 4.7638-2.4636 0.4438-8.3828 2.7021-13.154 5.0189-4.771 2.3166-9.751 4.212-11.067 4.212s-7.0047 2.0926-12.642 4.6502-12.282 5.0179-14.765 5.4674c-2.4829 0.4494-6.9732 2.3814-9.9786 4.2931-3.0053 1.9118-13.163 5.8154-22.572 8.6745-20.511 6.2328-32.87 7.3216-42.378 3.7333zm-243.92-406.11c-5.6409-1.8897-16.668-8.3553-22.695-13.306-7.7505-6.3675-9.6946-11.656-10.318-28.066-0.75889-19.961 1.2143-26.372 10.769-34.986 8.1989-7.3917 18.829-12.98 29.602-15.563 4.2564-1.0204 18.477-2.951 31.6-4.2899 13.124-1.3392 32.858-3.7775 43.854-5.4189 10.996-1.6414 26.086-3.3271 33.535-3.7461 7.4487-0.4191 18.995-1.5618 25.658-2.5394 19.235-2.8221 38.02-5.1265 58.18-7.1373 17.89-1.7843 50.015-6.3778 51.794-7.4061 0.46547-0.269 11.203-1.0459 23.862-1.7265 12.658-0.6804 31.141-2.3053 41.073-3.6106 9.9316-1.3054 32.278-4.041 49.658-6.0791 17.38-2.0381 38.565-4.7466 47.078-6.0186 21.681-3.2399 46.156-4.8358 74.164-4.8358h23.991l7.6745 5.2507c10.172 6.9597 16.904 14.147 21.02 22.439 2.887 5.8171 3.3789 8.4653 3.3988 18.298 0.0206 10.14-0.41494 12.387-3.6907 19.042-4.0427 8.2125-12.624 16.677-20.947 20.661-12.894 6.1722-27.526 8.8493-64.336 11.771-13.479 1.0699-34.664 3.2388-47.078 4.8198s-35.631 4.0162-51.592 5.4114c-15.961 1.3951-39.468 4.1063-52.237 6.0247-12.769 1.9183-30.839 3.8341-40.154 4.2573-17.197 0.7814-19.166 0.9971-48.843 5.3539-9.2222 1.3539-26.635 3.3212-38.694 4.3714-12.06 1.0503-29.762 2.9938-39.339 4.3186-9.5768 1.325-31.633 3.7597-49.013 5.4107-17.38 1.6508-36.534 3.7819-42.564 4.7357-11.296 1.7869-34.237 4.3117-38.321 4.2177-1.2694-0.029-4.4581-0.7732-7.0859-1.6537zm3581.4 0.8583c-2.1281-0.2522-9.6735-1.5211-16.768-2.8196-7.0939-1.2987-27.186-3.7276-44.65-5.3979-17.464-1.6702-39.229-4.3573-48.368-5.9716-9.1389-1.6144-25.322-3.5141-35.963-4.2217s-26.358-2.3663-34.927-3.686c-8.569-1.3195-24.821-3.2492-36.115-4.288-29.835-2.7443-51.306-5.3082-61.023-7.2875-4.6885-0.9549-17.231-2.3467-27.872-3.0928s-24.281-2.1527-30.311-3.1258c-17.802-2.8729-38.202-4.9811-56.107-5.798-30.776-1.4041-50.108-3.1802-73.519-6.7546-39.175-5.9811-42.556-7.2853-51.124-19.724-6.0534-8.788-10.142-20.565-10.142-29.213 0-13.241 18.048-37.628 30.124-40.704 9.2367-2.3528 82.882-0.6794 104.02 2.3637 9.577 1.3789 30.805 3.5976 47.174 4.9304 16.369 1.3326 37.264 3.5104 46.433 4.8391 9.1696 1.3288 28.571 3.5324 43.113 4.8967 14.543 1.3645 33.696 3.5747 42.564 4.9115 8.8676 1.3369 17.864 2.6875 19.992 3.0014 2.1282 0.3138 13.668 1.4075 25.644 2.4306 11.976 1.0229 24.35 2.4014 27.497 3.0632 9.4326 1.9834 22.874 3.4501 49.399 5.3902 26.577 1.9436 51.642 4.7819 59.586 6.747 2.6225 0.6488 13.171 1.9722 23.441 2.9407 30.36 2.8634 52.025 10.708 60.142 21.778 6.974 9.5109 7.7396 12.462 7.7396 29.836 0 18.393-1.6115 23.152-10.347 30.557-11.518 9.7633-33.913 16.261-49.629 14.398zm-3104.6-397.42c-4.9658-0.5499-15.703-2.3424-23.862-3.9833-8.1581-1.6411-18.896-3.3502-23.862-3.7981-4.9658-0.448-18.025-2.6227-29.021-4.8327-10.996-2.2101-24.345-4.3838-29.666-4.8307-5.3205-0.4468-18.67-2.6301-29.666-4.8518-10.996-2.2217-24.635-4.4099-30.311-4.8625-5.6752-0.4528-17.864-2.3733-27.086-4.268-9.2222-1.8947-25.764-4.5943-36.76-5.9992-10.996-1.4048-26.377-3.8308-34.18-5.3906-7.8034-1.5599-20.262-3.4434-27.685-4.1855-26.266-2.6255-59.092-11.085-71.123-18.329-7.3273-4.4118-12.994-10.173-16.688-16.968-2.0416-3.7548-2.927-8.7031-3.8379-21.447l-1.184-16.566 6.732-6.4761c3.7026-3.5619 10.68-9.1038 15.504-12.316 10.842-7.2175 17.084-8.1051 43.019-6.118 19.73 1.5118 26.33 2.4394 48.169 6.7699 8.1581 1.6176 20.315 3.5256 27.015 4.2399 6.7004 0.7141 18.083 2.6066 25.295 4.2056 7.212 1.5989 19.92 3.7448 28.24 4.7686 8.3201 1.0239 18.993 2.9338 23.718 4.2445 12.504 3.4688 18.338 4.5486 36.321 6.7226 8.8675 1.0719 21.346 3.2439 27.731 4.8265 6.3846 1.5827 16.542 3.2357 22.572 3.6732s20.83 2.6364 32.89 4.886c12.06 2.2498 30.053 4.9711 39.984 6.0474 19.809 2.1467 50.504 9.0231 56.942 12.757 7.2542 4.2066 19.443 17.598 23.818 26.168 5.8497 11.458 5.6456 16.411-1.2248 29.73-6.1205 11.865-12.738 17.835-26.653 24.043-7.1541 3.1919-8.811 3.4411-21.927 3.2968-7.8034-0.086-18.251-0.6059-23.217-1.1557zm2597.7-5.6754c-14.079-6.4575-20.559-12.326-26.653-24.14-6.8704-13.318-7.0745-18.272-1.2248-29.73 4.3749-8.5695 16.564-21.961 23.818-26.168 6.4381-3.7334 37.132-10.61 56.942-12.756 9.9316-1.0763 27.924-3.7976 39.984-6.0475 12.06-2.2496 26.86-4.4483 32.89-4.886 6.0298-0.4375 16.187-2.0904 22.572-3.6731 6.3845-1.5827 18.864-3.7476 27.731-4.8109 13.73-1.6464 39.661-6.7954 42.493-8.4375 0.4805-0.2786 8.0397-1.3841 16.798-2.4566 8.7584-1.0724 21.666-3.2542 28.683-4.8485 7.017-1.5943 18.679-3.5227 25.916-4.2855 7.2365-0.7628 18.381-2.4652 24.766-3.783 28.265-5.834 61.406-9.1826 76.185-7.6977 6.9763 0.7009 9.4436 1.6712 16.938 6.66 4.8248 3.2118 11.802 8.7537 15.504 12.316l6.732 6.4761-1.1833 16.556c-0.9927 13.89-1.7034 17.519-4.4139 22.538-3.4449 6.3788-12.705 14.835-20.12 18.372-12.578 6.0008-49.78 14.571-70.94 16.342-5.3205 0.4452-16.058 2.0917-23.862 3.6587-7.8033 1.5671-24.678 4.245-37.5 5.9513-12.822 1.7063-27.904 4.2043-33.517 5.5511-5.6128 1.347-17.468 3.2164-26.346 4.1543-8.877 0.9377-23.976 3.3349-33.553 5.3272-9.5768 1.9921-21.766 3.9837-27.086 4.4258-5.3205 0.4422-18.67 2.6123-29.666 4.8222-10.996 2.21-24.055 4.3941-29.021 4.8536s-17.154 2.4315-27.086 4.3822c-13.544 2.6601-23.055 3.7138-38.05 4.2149l-19.992 0.6682zm-111.6-312.87c-13.618-2.8934-27.968-13.797-30.814-23.415-0.7593-2.5657-1.3817-13.106-1.383-23.423 0-21.845 0.5069-23.172 12.205-31.787 9.7111-7.1514 39.019-22.104 74.846-38.185 37.216-16.704 99.621-45.78 229.59-106.97 138.49-65.202 164.49-75.944 184.36-76.167 9.7082-0.1089 14.256 1.0086 24.586 6.0412 11.782 5.7397 18.654 12.272 22.28 21.177 4.1929 10.299 4.6283 14.904 2.298 24.308-2.9161 11.768-9.2688 23.178-16.883 30.322-6.096 5.7199-22.664 15.139-26.629 15.139-0.9842 0-4.9622 1.9201-8.84 4.2668-3.8777 2.347-9.3721 4.833-12.21 5.5246-2.8376 0.6917-8.3515 3.0566-12.253 5.2552-3.9017 2.1984-10.069 4.9075-13.706 6.02-3.6368 1.1126-21.63 9.0163-39.984 17.564-18.354 8.5477-39.868 18.321-47.807 21.719-7.9392 3.398-41.023 18.506-73.519 33.574-32.496 15.068-69.242 31.889-81.656 37.38-12.414 5.4908-30.528 13.593-40.254 18.004-9.725 4.4113-18.069 8.0206-18.541 8.0206-0.4725 0-18.634 8.2123-40.36 18.25-21.725 10.037-44.144 20.384-49.819 22.994-11.938 5.4886-23.556 6.9233-35.506 4.3846zm-2361.2-2.1481c-4.3881-1.3048-43.276-19.077-86.417-39.493-43.141-20.417-116.17-54.453-162.28-75.637-104.44-47.982-186.86-86.962-203.95-96.46-14.335-7.9682-18.574-11.902-23.589-21.894-2.959-5.8954-3.3305-8.1086-3.2504-19.364 0.10337-14.518 1.4712-20.06 6.9538-28.172 4.9249-7.2866 16.906-14.739 26.789-16.664 3.9708-0.7735 13.364-1.2051 20.873-0.959 12.883 0.422 14.127 0.6954 22.037 4.8462 4.6111 2.4195 28.118 13.768 52.237 25.219 70.32 33.385 117.03 55.89 121.89 58.727 2.4829 1.4499 29.472 14.349 59.976 28.665 106.86 50.152 169 79.846 172.92 82.639 2.177 1.549 6.2551 3.3969 9.0626 4.1063 2.8075 0.7092 6.9901 2.5949 9.2948 4.1904 2.3046 1.5952 7.7114 4.1053 12.015 5.5776 9.5152 3.2553 21.388 12.431 28.739 22.212l5.2903 7.038 0.42344 17.05 0.42332 17.05-12.652 11.916-12.652 11.916-18.081-0.068c-14.237-0.053-19.778-0.5723-26.06-2.4404zm203.96-279.97c-5.5604-2.2724-18.178-12.411-57.33-46.065-18.799-16.159-44.628-37.989-57.397-48.51-43.908-36.179-147.15-124.82-167.08-143.45-30.433-28.451-36.069-36.845-36.069-53.716 0-20.351 10.6-37.773 27.246-44.783 11.941-5.028 23.018-6.4801 30.551-4.0049 3.3271 1.0933 8.1813 2.3515 10.787 2.796 6.2342 1.0634 7.7765 2.3342 79.09 65.167 33.336 29.372 70.483 62.087 82.548 72.7 72.898 64.127 135.69 122 140.71 129.7 7.7029 11.811 8.2187 13.594 8.2485 28.52l0.028 14.138-15.668 13.492c-8.6173 7.4208-17.071 13.993-18.786 14.605-4.6224 1.6491-22.352 1.2594-26.878-0.5907zm1941.2 0.5385c-3.4693-1.3177-24.649-21.694-29.358-28.245-3.4485-4.7966-3.6296-5.6928-3.2279-15.974 0.469-12.01 2.6932-17.697 10.834-27.701 5.4723-6.7246 35.654-33.229 67.561-59.33 13.089-10.708 36.306-30.096 51.592-43.086 15.287-12.99 40.853-34.492 56.815-47.781 15.961-13.29 37.727-31.845 48.368-41.233 37.481-33.069 71.137-60.405 79.174-64.306 2.4635-1.1959 7.6788-3.9443 11.589-6.1075 6.3462-3.5106 8.1673-3.9332 16.948-3.9332 21.962 0 43.809 10.947 47.633 23.869 2.2509 7.6052 1.6764 25.813-1.0762 34.112-3.5633 10.742-9.0614 17.945-22.387 29.327-6.5139 5.5636-26.396 22.914-44.183 38.556-17.787 15.642-45.085 39.329-60.664 52.637-15.578 13.309-37.321 32.054-48.317 41.656s-27.828 23.756-37.404 31.453c-9.5769 7.6969-23.507 19.094-30.956 25.328-26.777 22.408-73.932 56.557-83.014 60.118-5.0245 1.9697-25.288 2.4048-29.927 0.6425zm-262.26-221.86c-8.8712-2.6581-27.275-21.747-33.622-34.873-3.4109-7.0539-3.3682-15.06 0.108-20.412 1.5007-2.31 3.5273-6.7231 4.5033-9.8069 0.976-3.0838 3.3009-7.7173 5.1665-10.297 1.8655-2.5795 4.2147-6.8779 5.2204-9.5521 1.0055-2.6742 3.4921-6.498 5.5257-8.4974s4.594-5.6839 5.6898-8.188c1.096-2.504 8.6078-15.302 16.693-28.44 24.141-39.227 39.873-65.052 52.888-86.819 6.7656-11.316 16.348-26.837 21.293-34.491 4.9455-7.6546 10.507-16.764 12.358-20.242 1.8515-3.4787 5.9004-10.014 8.9975-14.523 3.097-4.5087 7.2196-11.193 9.161-14.854 1.9416-3.6609 4.8962-8.0254 6.5658-9.6989 1.6696-1.6735 3.9169-5.3859 4.9937-8.2497 1.0769-2.8639 3.871-7.3039 6.2089-9.8668 2.3381-2.5629 9.6998-13.827 16.36-25.031 31.475-52.955 66.43-105.73 87.361-131.91 7.215-9.022 21.964-20.65 30.374-23.946 9.8721-3.8697 17.95-1.7304 31.964 8.4651 18.329 13.334 24.289 22.915 25.431 40.881 1.2894 20.277-2.4266 32.768-15.972 53.688-4.6587 7.1954-11.67 18.256-15.58 24.58-3.9102 6.3234-13.854 20.933-22.099 32.466-8.2443 11.533-16.191 23.023-17.66 25.533-5.808 9.9261-10.886 16.969-16.552 22.954-3.2611 3.4452-5.9291 6.9928-5.9291 7.8836 0 0.89082-2.9875 5.9102-6.6387 11.154-3.6513 5.244-9.0202 13.415-11.931 18.157-2.9107 4.7424-7.9668 12.367-11.236 16.943-15.473 21.661-30.816 44.213-30.816 45.296 0 0.66023-2.2565 3.5028-5.0146 6.3168-2.758 2.814-5.9091 7.1326-7.0022 9.5968-1.0933 2.4642-5.8533 10.034-10.578 16.821-4.7245 6.7876-8.9249 13.213-9.3342 14.278-0.4095 1.0654-5.0012 7.9728-10.204 15.35-5.2028 7.377-9.4596 14.03-9.4596 14.785 0 0.75461-2.6119 4.1314-5.8041 7.5039-3.1923 3.3726-5.8042 6.6688-5.8042 7.325 0 0.6562-5.4274 9.4877-12.061 19.626-6.6333 10.138-15.775 24.333-20.314 31.545-4.5396 7.2121-10.043 15.109-12.229 17.548-2.1862 2.4394-5.8681 7.7923-8.1819 11.895-5.4012 9.5778-20.394 24.865-27.593 28.135-6.1687 2.802-17.659 3.2427-25.249 0.96831zm-1397.9-12.056c-2.9437-1.4976-8.2572-4.214-11.808-6.0363-3.7737-1.9369-9.6606-6.8075-14.171-11.724-7.3868-8.0529-64.372-86.908-69.157-95.698-1.2682-2.3297-4.113-6.1419-6.3219-8.4715-2.2088-2.3297-6.8003-9.1781-10.203-15.219-3.4029-6.0406-8.4816-13.588-11.286-16.772-2.8043-3.1842-5.0987-6.3296-5.0987-6.9898 0-0.66021-8.353-13.263-18.562-28.006-10.209-14.743-19.733-28.984-21.164-31.646s-4.3959-6.4404-6.5891-8.3954c-2.1932-1.955-3.9876-4.1864-3.9876-4.9588 0-0.77233-3.2865-6.2526-7.3034-12.178-4.0169-5.9257-19.636-29.29-34.71-51.922-15.074-22.631-31.957-47.594-37.518-55.473s-11.562-16.923-13.335-20.097c-1.7735-3.1743-6.9337-10.387-11.467-16.028-4.5333-5.6413-9.5491-13.48-11.146-17.42-1.5969-3.9396-4.1273-10.028-5.6229-13.53-2.2078-5.1689-2.7193-8.9514-2.7193-20.106 0-17.419 1.5682-25.086 6.7946-33.217 13.183-20.509 29.693-27.906 49.5-22.176 22.24 6.4332 28.579 12.943 64.393 66.133 6.2747 9.3187 14.687 21.3 18.695 26.625 13.165 17.493 85.236 125.73 95.884 144 2.7115 4.6526 6.271 9.9545 7.9099 11.782 3.6543 4.075 20.545 28.976 25.504 37.599 1.9931 3.4659 6.9848 11.203 11.092 17.194 4.1077 5.9906 9.4418 14 11.854 17.799 2.412 3.7988 8.3923 12.458 13.29 19.242 4.8974 6.7842 10.992 15.979 13.543 20.434 2.5512 4.4546 6.2584 10.228 8.2382 12.829 9.8165 12.899 33.375 52.09 36.812 61.239 11.114 29.585 10.019 37.34-7.7537 54.895l-9.1244 9.0128h-19.555c-17.833 0-20.026-0.23975-24.907-2.723zm1065.2-135.3c-17.051-4.1897-25.947-10.986-31.08-23.745-2.495-6.2015-2.7604-8.6734-2.1874-20.37 0.7642-15.601 8.3805-46.894 18.906-77.68 3.5717-10.446 7.1499-22.294 7.9517-26.327 0.8016-4.0334 3.108-12.235 5.1253-18.225 2.0172-5.9906 7.2024-23.418 11.522-38.727 4.32-15.309 11.527-39.816 16.015-54.46 4.4883-14.644 8.5535-29.076 9.034-32.071 0.4804-2.9953 3.1461-11.981 5.9235-19.969 2.7775-7.9874 6.8144-21.875 8.9707-30.861 13.086-54.532 26.635-83.34 42.242-89.818 4.8025-1.9932 7.9991-2.2947 20.731-1.9549 14.849 0.39627 15.137 0.45875 21.299 4.6207 12.037 8.1303 25.351 28.31 25.353 38.427 7e-4 3.0632-1.7626 9.1566-4.3774 15.128-2.5271 5.771-4.7398 13.325-5.2331 17.865-0.4698 4.3265-2.5917 13.732-4.7152 20.902-2.1234 7.1696-4.6654 17.33-5.6489 22.578-0.9834 5.2484-3.483 13.28-5.5547 17.848-2.0716 4.5679-4.4292 11.875-5.2391 16.239-0.8099 4.3634-2.9685 11.388-4.797 15.61-1.8284 4.2222-4.1096 11.867-5.0692 16.988-0.9594 5.1209-3.2131 12.584-5.0077 16.585-1.7948 4.001-4.544 12.11-6.1092 18.019-1.5651 5.9093-3.8701 13.015-5.122 15.791-1.252 2.7755-3.5355 10.672-5.0745 17.548-1.539 6.876-4.1359 15.497-5.7707 19.158-1.635 3.6609-3.4013 9.3792-3.9252 12.707-0.5241 3.3281-2.8481 10.977-5.1645 16.998s-4.638 13.645-5.1592 16.943c-0.5212 3.2977-2.8429 10.922-5.1592 16.943-2.3164 6.021-4.6246 13.645-5.1292 16.943-0.5046 3.2977-2.5565 10.08-4.5595 15.072-2.0031 4.9922-4.8342 13.638-6.2913 19.213-5.2505 20.089-17.256 35.916-34.136 45-7.6619 4.1234-9.7689 4.2242-22.564 1.0802zm-726.94-2.1652c-17.176-4.8357-24.434-10.891-32.879-27.427-7.0198-13.747-15.904-38.668-19.899-55.817-1.8795-8.0681-6.5692-23.968-10.422-35.334-3.8526-11.365-8.2203-25.187-9.7063-30.714-1.486-5.5273-4.3458-14.951-6.3551-20.942-2.0096-5.9906-4.0765-13.343-4.5931-16.338-0.5167-2.9953-2.6351-9.4662-4.7077-14.38-2.0725-4.9136-4.5617-12.81-5.5313-17.548-0.9698-4.7379-3.3007-12.427-5.1801-17.086-1.8792-4.6594-4.2451-12.145-5.2575-16.634-1.0122-4.4895-3.2659-11.341-5.0082-15.225s-3.8501-10.83-4.6841-15.436c-0.8339-4.6061-3.1403-11.998-5.1249-16.427-1.9848-4.429-4.5961-12.598-5.8029-18.153-1.2069-5.5553-5.3564-19.631-9.2212-31.279-9.2334-27.83-10.99-35.106-11.105-46.004-0.079-7.4048 0.542-10.4 3.3424-16.139 6.6684-13.667 14.118-19.891 29.904-24.987 10.674-3.4457 17.756-3.1383 27.517 1.1946 17.083 7.5831 29.614 21.596 33.014 36.922 1.0338 4.6593 3.3536 11.488 5.1549 15.174 1.8014 3.6863 4.146 10.973 5.2103 16.192 1.0642 5.2194 3.1558 12.551 4.6478 16.292 1.4919 3.7412 4.1357 12.52 5.8749 19.509 1.7391 6.989 5.9966 20.876 9.4609 30.861 3.4643 9.9843 9.5577 29.318 13.541 42.963 3.9834 13.645 9.528 31.617 12.322 39.937 2.7937 8.3203 5.4482 17.492 5.8992 20.383 0.4508 2.8902 2.4338 9.4254 4.4065 14.523s4.0017 12.263 4.5088 15.924c0.507 3.6609 3.1389 13.191 5.8486 21.179s5.3295 16.973 5.8215 19.969c0.4922 2.9953 2.2988 8.6014 4.0145 12.458 1.7158 3.8566 4.0299 11.209 5.1423 16.338 1.1125 5.1292 3.7801 15.044 5.9278 22.033 3.4186 11.124 3.984 15.159 4.5379 32.384 0.7129 22.173 0.1186 24.714-7.1793 30.726-6.5388 5.3869-22.533 12.224-29.695 12.695-3.3086 0.21723-9.4798-0.58409-13.744-1.7846zm359.21-48.602c-13.322-4.6002-25.245-13.918-29.429-22.999-2.7757-6.0243-4.0005-90.938-4.4161-306.19-0.3932-203.56-0.795-196.69 12.288-210.12 8.2528-8.4728 11.411-9.2706 34.518-8.7194 21.361 0.50955 23.195 1.1014 34.51 11.138 4.733 4.1983 8.5081 9.1353 11.683 15.279l4.6908 9.0766-0.6734 239.02-0.6732 239.02-5.7759 9.5837c-6.8393 11.349-15.45 19.879-24.052 23.826-8.6751 3.981-22.917 4.4545-32.672 1.0862z" stroke-width="1.2494"/>
</svg>
